<?xml version="1.0" encoding="UTF-8" standalone="no"?>
<svg
   inkscape:version="1.3.1 (91b66b0783, 2023-11-16)"
   id="svg8"
   version="1.1"
   viewBox="0 0 600 400"
   height="400"
   width="600"
   sodipodi:docname="gnome-shell-start.svg"
   xml:space="preserve"
   xmlns:inkscape="http://www.inkscape.org/namespaces/inkscape"
   xmlns:sodipodi="http://sodipodi.sourceforge.net/DTD/sodipodi-0.dtd"
   xmlns:xlink="http://www.w3.org/1999/xlink"
   xmlns="http://www.w3.org/2000/svg"
   xmlns:svg="http://www.w3.org/2000/svg"
   xmlns:rdf="http://www.w3.org/1999/02/22-rdf-syntax-ns#"
   xmlns:cc="http://creativecommons.org/ns#"
   xmlns:dc="http://purl.org/dc/elements/1.1/"><defs
     id="defs2"><linearGradient
       id="a"><stop
         offset="0"
         stop-color="#eef4fc"
         id="stop3"
         style="stop-color:#b2cdf1;stop-opacity:1" /><stop
         offset="1"
         stop-color="#fff"
         id="stop5" /></linearGradient><clipPath
       id="e-3"
       clipPathUnits="userSpaceOnUse"><path
         d="m 65,177 c -18.502,0 -33.5,14.998 -33.5,33.5 0.008,7.371 4.131,15.807 11.388,23.526 l 12.617,13.171 H 75.02 l 12.137,-13.245 c 6.636,-7.059 11.33,-16.117 11.344,-23.452 0,-18.502 -14.998,-33.5 -33.5,-33.5 z"
         style="marker:none"
         fill="#ffffff"
         stroke-width="2"
         id="path34-6" /></clipPath><radialGradient
       r="33.5"
       fy="48.405998"
       fx="79.091003"
       cy="48.405998"
       cx="79.091003"
       gradientTransform="matrix(0.00476,1.62228,-1.43419,0.00422,141.702,-82.047)"
       gradientUnits="userSpaceOnUse"
       id="f-7"
       xlink:href="#b" /><linearGradient
       id="b"><stop
         offset="0"
         stop-color="#fff"
         id="stop11" /><stop
         offset=".519"
         stop-color="#fff"
         id="stop13" /><stop
         offset=".734"
         stop-color="#cfcfcf"
         id="stop15" /><stop
         offset="1"
         stop-color="#dcdcdc"
         id="stop17" /></linearGradient><radialGradient
       r="12"
       fy="54.102001"
       fx="71.473999"
       cy="54.102001"
       cx="71.473999"
       gradientTransform="matrix(4.50607,0,0,4.76661,-259.306,-59.706)"
       gradientUnits="userSpaceOnUse"
       id="g-2"
       xlink:href="#c" /><linearGradient
       id="c"><stop
         offset="0"
         stop-color="#ed686f"
         id="stop20" /><stop
         offset=".865"
         stop-color="#a51d2d"
         id="stop22" /><stop
         offset="1"
         stop-color="#e01b24"
         id="stop24" /></linearGradient><radialGradient
       r="14.583"
       fy="49.777"
       fx="40.152"
       cy="49.777"
       cx="40.152"
       gradientTransform="matrix(0.87016,4.27869,-2.56693,0.52204,148.394,-163.306)"
       gradientUnits="userSpaceOnUse"
       id="h-7"
       xlink:href="#d" /><linearGradient
       id="d"><stop
         offset="0"
         stop-color="#ed686f"
         id="stop27" /><stop
         offset=".911"
         stop-color="#a51d2d"
         id="stop29" /><stop
         offset="1"
         stop-color="#e01b24"
         id="stop31" /></linearGradient><radialGradient
       r="14.583"
       fy="49.777"
       fx="40.152"
       cy="49.777"
       cx="40.152"
       gradientTransform="matrix(0.87016,4.27869,-2.56693,0.52204,148.394,-163.306)"
       gradientUnits="userSpaceOnUse"
       id="i-6"
       xlink:href="#d" /><linearGradient
       id="linearGradient860"><stop
         offset="0"
         stop-color="#eef4fc"
         id="stop856"
         style="stop-color:#c5dcf7;stop-opacity:1" /><stop
         offset="1"
         stop-color="#fff"
         id="stop858" /></linearGradient></defs><sodipodi:namedview
     units="px"
     borderlayer="true"
     inkscape:showpageshadow="false"
     showgrid="false"
     inkscape:document-rotation="0"
     inkscape:current-layer="layer1"
     inkscape:document-units="px"
     inkscape:cy="27.274119"
     inkscape:cx="39.395949"
     inkscape:zoom="0.49497475"
     inkscape:pageshadow="2"
     inkscape:pageopacity="0"
     borderopacity="1"
     bordercolor="#383838"
     pagecolor="#1f1f1f"
     id="base"
     fit-margin-top="0"
     fit-margin-left="0"
     fit-margin-right="0"
     fit-margin-bottom="0"
     inkscape:window-width="1920"
     inkscape:window-height="941"
     inkscape:window-x="0"
     inkscape:window-y="32"
     inkscape:window-maximized="1"
     inkscape:snap-bbox="true"
     inkscape:object-paths="true"
     inkscape:snap-intersection-paths="true"
     inkscape:snap-smooth-nodes="true"
     inkscape:snap-midpoints="true"
     inkscape:pagecheckerboard="0"
     inkscape:deskcolor="#d1d1d1"><inkscape:grid
       type="xygrid"
       id="grid900"
       originx="0"
       originy="0"
       spacingy="1"
       spacingx="1"
       units="px"
       visible="false" /></sodipodi:namedview><metadata
     id="metadata5"><rdf:RDF><cc:Work
         rdf:about=""><dc:format>image/svg+xml</dc:format><dc:type
           rdf:resource="http://purl.org/dc/dcmitype/StillImage" /><dc:title /><cc:license
           rdf:resource="http://creativecommons.org/licenses/by-sa/4.0/" /></cc:Work><cc:License
         rdf:about="http://creativecommons.org/licenses/by-sa/4.0/"><cc:permits
           rdf:resource="http://creativecommons.org/ns#Reproduction" /><cc:permits
           rdf:resource="http://creativecommons.org/ns#Distribution" /><cc:requires
           rdf:resource="http://creativecommons.org/ns#Notice" /><cc:requires
           rdf:resource="http://creativecommons.org/ns#Attribution" /><cc:permits
           rdf:resource="http://creativecommons.org/ns#DerivativeWorks" /><cc:requires
           rdf:resource="http://creativecommons.org/ns#ShareAlike" /></cc:License></rdf:RDF></metadata><g
     id="layer1"
     inkscape:groupmode="layer"
     inkscape:label="Layer 1"
     transform="translate(-620,9.4371882)"><path
       style="fill:#000000;stroke-width:2.20061"
       d="m 1097.0382,287.09364 c -3.0863,-0.0229 -10.5629,-3.16121 -16.6146,-6.97383 -6.0517,-3.8126 -21.896,-12.12923 -35.2097,-18.48142 -13.3137,-6.35219 -31.3811,-13.24934 -40.1498,-15.32704 -11.92608,-2.8258 -21.35178,-3.47518 -37.41038,-2.57727 -13.64498,0.76295 -33.49518,4.14879 -54.47638,9.29201 -27.0748,6.63694 -37.361,8.13752 -57.21585,8.34671 -17.75018,0.18705 -27.92584,-0.83696 -38.15046,-3.83901 -7.66906,-2.25173 -19.75883,-7.8525 -26.86613,-12.44618 -7.10731,-4.59366 -16.05771,-12.60896 -19.88981,-17.81173 -3.83207,-5.20279 -9.4881,-14.90611 -12.56895,-21.56295 -4.54111,-9.81214 -5.63481,-15.64771 -5.77739,-30.82637 -0.15823,-16.83727 0.53983,-20.17967 6.93018,-33.1859 4.22873,-8.60665 12.3696,-19.77564 20.10522,-27.58358 7.70497,-7.77701 18.95811,-16.145292 27.63065,-20.547232 11.93368,-6.05722 17.84922,-7.61283 32.08276,-8.43681 12.64522,-0.73201 20.65403,0.0132 29.08093,2.70644 6.39635,2.04417 22.02755,9.48984 34.73605,16.545942 13.3362,7.40461 31.4809,15.29313 42.9119,18.65623 10.893,3.20482 26.73738,7.87853 35.20968,10.38608 8.4724,2.50753 20.87288,7.84894 27.55668,11.8698 6.6838,4.02089 18.6498,14.06031 26.5912,22.30984 7.9411,8.24953 23.2811,26.88246 34.0887,41.40648 10.8074,14.52401 23.846,34.4807 28.9743,44.34818 5.1283,9.86749 9.3242,20.31488 9.3242,23.21642 0,2.90155 -1.1883,6.46387 -2.6407,7.91628 -1.4524,1.4524 -5.1659,2.62191 -8.2523,2.59891 z m -17.1372,-28.67749 c 0.9229,0.0612 -0.9652,-4.09727 -4.1957,-9.24119 -3.2305,-5.14393 -11.8146,-18.26506 -19.0758,-29.15807 -7.2609,-10.89301 -20.7222,-27.26644 -29.9137,-36.38539 -9.1915,-9.11897 -22.1583,-19.67327 -28.81512,-23.45402 -6.65676,-3.78076 -27.45256,-11.48032 -46.21274,-17.11011 -25.3994,-7.62221 -39.4783,-13.28992 -55.1345,-22.19538 -11.5637,-6.57765 -25.7721,-13.57686 -31.5741,-15.5538 -7.32829,-2.49698 -15.01845,-3.27358 -25.18773,-2.54357 -8.9186,0.64022 -18.33191,2.93669 -24.09039,5.8771 -5.19846,2.65444 -13.33783,8.33712 -18.08749,12.62813 -4.74966,4.29103 -11.3369,13.40817 -14.63834,20.26032 -4.9462,10.26593 -6.02311,15.55667 -6.11921,30.06333 -0.0966,14.57859 0.88025,19.73083 5.68237,29.97231 3.18943,6.80208 9.36696,16.31679 13.72784,21.14376 4.49725,4.97793 13.89275,11.52685 21.70863,15.13156 12.49728,5.76377 15.93029,6.34484 36.88616,6.2433 19.63316,-0.0951 28.06826,-1.41684 56.11556,-8.79288 31.073,-8.17174 34.8161,-8.67471 63.81758,-8.57507 27.62998,0.0949 32.57318,0.71929 47.91238,6.05163 9.407,3.27017 25.7465,10.35149 36.3101,15.73622 10.5633,5.38474 19.9612,9.84058 20.8842,9.90182 z M 863.2135,172.69557 c -3.9886,-0.004 -10.4072,-1.93209 -14.26355,-4.28346 -3.85632,-2.35137 -8.06499,-6.24368 -9.35259,-8.64954 -1.28757,-2.40586 -2.34105,-6.78155 -2.34105,-9.72372 0,-2.94219 1.94699,-7.82461 4.32664,-10.84986 2.37965,-3.02522 7.27277,-6.72074 10.87363,-8.21227 5.02328,-2.0807 8.32772,-2.12416 14.19828,-0.18661 4.20818,1.38882 9.21778,4.91596 11.13248,7.83806 1.9146,2.92212 3.4811,9.35388 3.4811,14.29282 0,6.60004 -1.4314,10.41137 -5.4014,14.38137 -3.5553,3.55529 -7.88024,5.39869 -12.65354,5.39328 z"
       id="path1" /></g></svg>
