<?xml version="1.0" encoding="UTF-8" standalone="no"?>
<svg
   version="1.1"
   width="256px"
   height="256px"
   style="shape-rendering:geometricPrecision; text-rendering:geometricPrecision; image-rendering:optimizeQuality; fill-rule:evenodd; clip-rule:evenodd"
   id="svg3"
   sodipodi:docname="start-here-symbolic.svg"
   inkscape:version="1.4.1 (93de688d07, 2025-03-30)"
   xmlns:inkscape="http://www.inkscape.org/namespaces/inkscape"
   xmlns:sodipodi="http://sodipodi.sourceforge.net/DTD/sodipodi-0.dtd"
   xmlns="http://www.w3.org/2000/svg"
   xmlns:svg="http://www.w3.org/2000/svg">
  <defs
     id="defs3" />
  <sodipodi:namedview
     id="namedview3"
     pagecolor="#ffffff"
     bordercolor="#000000"
     borderopacity="0.25"
     inkscape:showpageshadow="2"
     inkscape:pageopacity="0.0"
     inkscape:pagecheckerboard="0"
     inkscape:deskcolor="#d1d1d1"
     inkscape:zoom="1.1117597"
     inkscape:cx="-117.38148"
     inkscape:cy="267.14407"
     inkscape:window-width="1707"
     inkscape:window-height="888"
     inkscape:window-x="0"
     inkscape:window-y="0"
     inkscape:window-maximized="1"
     inkscape:current-layer="svg3" />
  <g
     id="g1"
     style="fill:#2e3436;fill-opacity:1">
    <path
       style="opacity:0.966;fill:#2e3436;fill-opacity:1"
       fill="#709ad1"
       d="M 69.5,82.5 C 69.1667,81.5 68.5,80.8333 67.5,80.5C 67.5,59.8333 67.5,39.1667 67.5,18.5C 127.834,18.3333 188.168,18.5 248.5,19C 249.494,40.0911 249.827,61.2578 249.5,82.5C 189.5,82.5 129.5,82.5 69.5,82.5 Z"
       id="path1" />
  </g>
  <g
     id="g2"
     style="fill:#2e3436;fill-opacity:1">
    <path
       style="opacity:0.967;fill:#2e3436;fill-opacity:1"
       fill="#99d8e9"
       d="M 67.5,80.5 C 68.5,80.8333 69.1667,81.5 69.5,82.5C 69.5,87.8333 69.5,93.1667 69.5,98.5C 129.5,98.5 189.5,98.5 249.5,98.5C 249.5,124.833 249.5,151.167 249.5,177.5C 228.833,177.5 208.167,177.5 187.5,177.5C 187.167,176.5 186.5,175.833 185.5,175.5C 185.5,171.167 185.5,166.833 185.5,162.5C 125.5,162.5 65.5,162.5 5.5,162.5C 5.5,135.167 5.5,107.833 5.5,80.5C 26.1667,80.5 46.8333,80.5 67.5,80.5 Z"
       id="path2" />
  </g>
  <g
     id="g3"
     style="fill:#2e3436;fill-opacity:1">
    <path
       style="opacity:0.974;fill:#2e3436;fill-opacity:1"
       fill="#00b6ee"
       d="M 185.5,175.5 C 186.5,175.833 187.167,176.5 187.5,177.5C 187.5,198.167 187.5,218.833 187.5,239.5C 127.166,239.667 66.8324,239.5 6.5,239C 5.5065,217.909 5.17316,196.742 5.5,175.5C 65.5,175.5 125.5,175.5 185.5,175.5 Z"
       id="path3" />
  </g>
</svg>
